<mxfile host="Electron" agent="Mozilla/5.0 (X11; Linux x86_64) AppleWebKit/537.36 (KHTML, like Gecko) draw.io/24.7.8 Chrome/128.0.6613.36 Electron/32.0.1 Safari/537.36" version="24.7.8">
  <diagram name="Page-1" id="3ObT_m-NAOLVus-RYf4L">
    <mxGraphModel dx="1424" dy="875" grid="1" gridSize="10" guides="1" tooltips="1" connect="1" arrows="1" fold="1" page="1" pageScale="1" pageWidth="850" pageHeight="1100" math="0" shadow="0">
      <root>
        <mxCell id="0" />
        <mxCell id="1" parent="0" />
        <mxCell id="EidREgc0hJ4l1lNn47wh-2" value="&lt;font style=&quot;font-size: 21px;&quot;&gt;Subweb&lt;/font&gt;" style="swimlane;whiteSpace=wrap;html=1;startSize=23;" parent="1" vertex="1">
          <mxGeometry x="50" y="20" width="710" height="700" as="geometry" />
        </mxCell>
        <mxCell id="EidREgc0hJ4l1lNn47wh-3" value="&lt;font style=&quot;font-size: 13px;&quot;&gt;&amp;lt;Profile&amp;gt;&lt;/font&gt;" style="ellipse;whiteSpace=wrap;html=1;aspect=fixed;" parent="EidREgc0hJ4l1lNn47wh-2" vertex="1">
          <mxGeometry x="60" y="30" width="110" height="110" as="geometry" />
        </mxCell>
        <mxCell id="EidREgc0hJ4l1lNn47wh-8" value="" style="ellipse;whiteSpace=wrap;html=1;aspect=fixed;" parent="EidREgc0hJ4l1lNn47wh-2" vertex="1">
          <mxGeometry x="470" y="530" width="80" height="80" as="geometry" />
        </mxCell>
        <mxCell id="EidREgc0hJ4l1lNn47wh-9" value="" style="ellipse;whiteSpace=wrap;html=1;aspect=fixed;" parent="EidREgc0hJ4l1lNn47wh-2" vertex="1">
          <mxGeometry x="410" y="550" width="80" height="80" as="geometry" />
        </mxCell>
        <mxCell id="EidREgc0hJ4l1lNn47wh-10" value="" style="ellipse;whiteSpace=wrap;html=1;aspect=fixed;" parent="EidREgc0hJ4l1lNn47wh-2" vertex="1">
          <mxGeometry x="470" y="600" width="80" height="80" as="geometry" />
        </mxCell>
        <mxCell id="EidREgc0hJ4l1lNn47wh-12" value="&lt;font style=&quot;font-size: 20px;&quot;&gt;&lt;b&gt;Shape Index&lt;/b&gt;&lt;/font&gt;" style="swimlane;fontStyle=0;childLayout=stackLayout;horizontal=1;startSize=30;horizontalStack=0;resizeParent=1;resizeParentMax=0;resizeLast=0;collapsible=1;marginBottom=0;whiteSpace=wrap;html=1;" parent="EidREgc0hJ4l1lNn47wh-2" vertex="1">
          <mxGeometry x="240" y="95" width="190" height="210" as="geometry" />
        </mxCell>
        <mxCell id="EidREgc0hJ4l1lNn47wh-13" value="&lt;font style=&quot;font-size: 20px;&quot;&gt;Profile&lt;/font&gt;" style="text;strokeColor=default;fillColor=none;align=left;verticalAlign=middle;spacingLeft=4;spacingRight=4;overflow=hidden;points=[[0,0.5],[1,0.5]];portConstraint=eastwest;rotatable=0;whiteSpace=wrap;html=1;" parent="EidREgc0hJ4l1lNn47wh-12" vertex="1">
          <mxGeometry y="30" width="190" height="50" as="geometry" />
        </mxCell>
        <mxCell id="EidREgc0hJ4l1lNn47wh-14" value="&lt;font style=&quot;font-size: 20px;&quot;&gt;Movie reviews&lt;/font&gt;" style="text;strokeColor=default;fillColor=none;align=left;verticalAlign=middle;spacingLeft=4;spacingRight=4;overflow=hidden;points=[[0,0.5],[1,0.5]];portConstraint=eastwest;rotatable=0;whiteSpace=wrap;html=1;" parent="EidREgc0hJ4l1lNn47wh-12" vertex="1">
          <mxGeometry y="80" width="190" height="60" as="geometry" />
        </mxCell>
        <mxCell id="EidREgc0hJ4l1lNn47wh-15" value="&lt;font style=&quot;font-size: 20px;&quot;&gt;Reading list&lt;/font&gt;" style="text;strokeColor=default;fillColor=none;align=left;verticalAlign=middle;spacingLeft=4;spacingRight=4;overflow=hidden;points=[[0,0.5],[1,0.5]];portConstraint=eastwest;rotatable=0;whiteSpace=wrap;html=1;" parent="EidREgc0hJ4l1lNn47wh-12" vertex="1">
          <mxGeometry y="140" width="190" height="70" as="geometry" />
        </mxCell>
        <mxCell id="EidREgc0hJ4l1lNn47wh-19" value="&lt;font style=&quot;font-size: 20px;&quot;&gt;Academic&lt;/font&gt;" style="swimlane;whiteSpace=wrap;html=1;" parent="EidREgc0hJ4l1lNn47wh-2" vertex="1">
          <mxGeometry x="185" y="360" width="200" height="170" as="geometry" />
        </mxCell>
        <mxCell id="EidREgc0hJ4l1lNn47wh-7" value="&amp;lt;Science&amp;gt;" style="ellipse;whiteSpace=wrap;html=1;aspect=fixed;" parent="EidREgc0hJ4l1lNn47wh-19" vertex="1">
          <mxGeometry x="105" y="65" width="80" height="80" as="geometry" />
        </mxCell>
        <mxCell id="EidREgc0hJ4l1lNn47wh-6" value="&amp;lt;Philosophy&amp;gt;" style="ellipse;whiteSpace=wrap;html=1;aspect=fixed;" parent="EidREgc0hJ4l1lNn47wh-19" vertex="1">
          <mxGeometry x="15" y="65" width="80" height="80" as="geometry" />
        </mxCell>
        <mxCell id="n1fgndHM7W69QdK3vnZO-8" value="" style="ellipse;whiteSpace=wrap;html=1;aspect=fixed;" vertex="1" parent="EidREgc0hJ4l1lNn47wh-2">
          <mxGeometry x="70" y="540" width="80" height="80" as="geometry" />
        </mxCell>
        <mxCell id="n1fgndHM7W69QdK3vnZO-9" value="" style="ellipse;whiteSpace=wrap;html=1;aspect=fixed;" vertex="1" parent="EidREgc0hJ4l1lNn47wh-2">
          <mxGeometry x="10" y="560" width="80" height="80" as="geometry" />
        </mxCell>
        <mxCell id="n1fgndHM7W69QdK3vnZO-10" value="" style="ellipse;whiteSpace=wrap;html=1;aspect=fixed;" vertex="1" parent="EidREgc0hJ4l1lNn47wh-2">
          <mxGeometry x="70" y="610" width="80" height="80" as="geometry" />
        </mxCell>
        <mxCell id="n1fgndHM7W69QdK3vnZO-11" style="edgeStyle=orthogonalEdgeStyle;rounded=0;orthogonalLoop=1;jettySize=auto;html=1;entryX=1;entryY=0.5;entryDx=0;entryDy=0;" edge="1" parent="EidREgc0hJ4l1lNn47wh-2" source="EidREgc0hJ4l1lNn47wh-13" target="EidREgc0hJ4l1lNn47wh-3">
          <mxGeometry relative="1" as="geometry" />
        </mxCell>
        <mxCell id="n1fgndHM7W69QdK3vnZO-12" style="edgeStyle=orthogonalEdgeStyle;rounded=0;orthogonalLoop=1;jettySize=auto;html=1;entryX=1;entryY=0.5;entryDx=0;entryDy=0;" edge="1" parent="EidREgc0hJ4l1lNn47wh-2" source="EidREgc0hJ4l1lNn47wh-13" target="n1fgndHM7W69QdK3vnZO-20">
          <mxGeometry relative="1" as="geometry">
            <mxPoint x="140" y="215" as="targetPoint" />
          </mxGeometry>
        </mxCell>
        <mxCell id="n1fgndHM7W69QdK3vnZO-13" style="edgeStyle=orthogonalEdgeStyle;rounded=0;orthogonalLoop=1;jettySize=auto;html=1;" edge="1" parent="EidREgc0hJ4l1lNn47wh-2" source="EidREgc0hJ4l1lNn47wh-14" target="n1fgndHM7W69QdK3vnZO-15">
          <mxGeometry relative="1" as="geometry">
            <mxPoint x="520" y="150" as="targetPoint" />
          </mxGeometry>
        </mxCell>
        <mxCell id="n1fgndHM7W69QdK3vnZO-14" style="edgeStyle=orthogonalEdgeStyle;rounded=0;orthogonalLoop=1;jettySize=auto;html=1;entryX=0;entryY=0.5;entryDx=0;entryDy=0;" edge="1" parent="EidREgc0hJ4l1lNn47wh-2" source="EidREgc0hJ4l1lNn47wh-14" target="n1fgndHM7W69QdK3vnZO-19">
          <mxGeometry relative="1" as="geometry">
            <mxPoint x="540" y="297.5" as="targetPoint" />
          </mxGeometry>
        </mxCell>
        <mxCell id="n1fgndHM7W69QdK3vnZO-15" value="&lt;font style=&quot;font-size: 13px;&quot;&gt;&amp;lt;MovieReviews&amp;gt;&lt;/font&gt;" style="ellipse;whiteSpace=wrap;html=1;aspect=fixed;" vertex="1" parent="EidREgc0hJ4l1lNn47wh-2">
          <mxGeometry x="540" y="80" width="110" height="110" as="geometry" />
        </mxCell>
        <mxCell id="n1fgndHM7W69QdK3vnZO-17" style="edgeStyle=orthogonalEdgeStyle;rounded=0;orthogonalLoop=1;jettySize=auto;html=1;" edge="1" parent="EidREgc0hJ4l1lNn47wh-2" source="EidREgc0hJ4l1lNn47wh-15" target="EidREgc0hJ4l1lNn47wh-19">
          <mxGeometry relative="1" as="geometry">
            <Array as="points">
              <mxPoint x="340" y="320" />
              <mxPoint x="285" y="320" />
            </Array>
          </mxGeometry>
        </mxCell>
        <mxCell id="n1fgndHM7W69QdK3vnZO-18" style="edgeStyle=orthogonalEdgeStyle;rounded=0;orthogonalLoop=1;jettySize=auto;html=1;entryX=0.5;entryY=0;entryDx=0;entryDy=0;" edge="1" parent="EidREgc0hJ4l1lNn47wh-2" source="EidREgc0hJ4l1lNn47wh-15" target="n1fgndHM7W69QdK3vnZO-21">
          <mxGeometry relative="1" as="geometry">
            <mxPoint x="450" y="400" as="targetPoint" />
            <Array as="points">
              <mxPoint x="340" y="320" />
              <mxPoint x="485" y="320" />
            </Array>
          </mxGeometry>
        </mxCell>
        <mxCell id="n1fgndHM7W69QdK3vnZO-19" value="&amp;lt;MovieReviewShape&amp;gt;" style="rounded=0;whiteSpace=wrap;html=1;fontSize=13;" vertex="1" parent="EidREgc0hJ4l1lNn47wh-2">
          <mxGeometry x="540" y="255" width="150" height="60" as="geometry" />
        </mxCell>
        <mxCell id="n1fgndHM7W69QdK3vnZO-20" value="&lt;font style=&quot;font-size: 13px;&quot;&gt;&amp;lt;ProfileShape&amp;gt;&lt;/font&gt;" style="rounded=0;whiteSpace=wrap;html=1;fontSize=13;" vertex="1" parent="EidREgc0hJ4l1lNn47wh-2">
          <mxGeometry x="20" y="230" width="150" height="60" as="geometry" />
        </mxCell>
        <mxCell id="n1fgndHM7W69QdK3vnZO-21" value="&amp;lt;ReadingLishShape&amp;gt;" style="rounded=0;whiteSpace=wrap;html=1;fontSize=13;" vertex="1" parent="EidREgc0hJ4l1lNn47wh-2">
          <mxGeometry x="410" y="410" width="150" height="60" as="geometry" />
        </mxCell>
        <mxCell id="EidREgc0hJ4l1lNn47wh-5" value="&amp;lt;Fiction&amp;gt;" style="ellipse;whiteSpace=wrap;html=1;aspect=fixed;" parent="EidREgc0hJ4l1lNn47wh-2" vertex="1">
          <mxGeometry x="55" y="425" width="80" height="80" as="geometry" />
        </mxCell>
        <mxCell id="n1fgndHM7W69QdK3vnZO-22" style="edgeStyle=orthogonalEdgeStyle;rounded=0;orthogonalLoop=1;jettySize=auto;html=1;entryX=0.5;entryY=0;entryDx=0;entryDy=0;" edge="1" parent="EidREgc0hJ4l1lNn47wh-2" source="EidREgc0hJ4l1lNn47wh-15" target="EidREgc0hJ4l1lNn47wh-5">
          <mxGeometry relative="1" as="geometry">
            <Array as="points">
              <mxPoint x="340" y="320" />
              <mxPoint x="95" y="320" />
            </Array>
          </mxGeometry>
        </mxCell>
      </root>
    </mxGraphModel>
  </diagram>
</mxfile>
